<?xml version="1.0" encoding="iso-8859-1"?>
<!-- Uploaded to: SVG Repo, www.svgrepo.com, Generator: SVG Repo Mixer Tools -->
<svg fill="#000000" height="800px" width="800px" version="1.1" id="Layer_1" xmlns="http://www.w3.org/2000/svg" xmlns:xlink="http://www.w3.org/1999/xlink" 
	 viewBox="0 0 463 463" xml:space="preserve">
<g>
	<g>
		<g>
			<path d="M455.5,220H7.5c-4.142,0-7.5,3.358-7.5,7.5v32c0,4.142,3.358,7.5,7.5,7.5H8v136.5c0,4.142,3.358,7.5,7.5,7.5H120v17
				h-16.5c-4.142,0-7.5,3.358-7.5,7.5c0,4.142,3.358,7.5,7.5,7.5h48c4.142,0,7.5-3.358,7.5-7.5c0-4.142-3.358-7.5-7.5-7.5H135v-17
				h193v17h-16.5c-4.142,0-7.5,3.358-7.5,7.5c0,4.142,3.358,7.5,7.5,7.5h48c4.142,0,7.5-3.358,7.5-7.5c0-4.142-3.358-7.5-7.5-7.5
				H343v-17h104.5c4.142,0,7.5-3.358,7.5-7.5V267h0.5c4.142,0,7.5-3.358,7.5-7.5v-32C463,223.358,459.642,220,455.5,220z M120,396
				H23V267h52.262l10.133,45.598C87.802,323.433,97.236,331,108.335,331H120V396z M108.335,316c-4.015,0-7.427-2.737-8.298-6.656
				L97.739,299H159.5c4.687,0,8.5,3.813,8.5,8.5s-3.813,8.5-8.5,8.5H108.335z M328,364h-24.5c-4.142,0-7.5,3.358-7.5,7.5
				c0,4.142,3.358,7.5,7.5,7.5H328v17H135v-17h24.5c4.142,0,7.5-3.358,7.5-7.5c0-4.142-3.358-7.5-7.5-7.5H135v-33h24.5
				c12.958,0,23.5-10.542,23.5-23.5S172.458,284,159.5,284h-64c-0.366,0-0.726,0.026-1.078,0.077L90.627,267h281.745l-3.795,17.077
				c-0.352-0.051-0.711-0.077-1.078-0.077h-64c-12.958,0-23.5,10.542-23.5,23.5s10.542,23.5,23.5,23.5H328V364z M303.5,316
				c-4.687,0-8.5-3.813-8.5-8.5s3.813-8.5,8.5-8.5h61.761l-2.298,10.344c-0.871,3.919-4.283,6.656-8.298,6.656H303.5z M440,396h-97
				v-65h11.665c11.099,0,20.533-7.567,22.94-18.402L387.738,267H440V396z M448,252h-0.5h-56.525
				c0.247-3.636-2.181-7.007-5.848-7.821c-4.04-0.898-8.049,1.651-8.948,5.694L375.706,252H87.294l-0.473-2.127
				c-0.899-4.043-4.902-6.594-8.948-5.694c-3.666,0.814-6.095,4.186-5.848,7.821H15.5H15v-17h433V252z"/>
			<path d="M455.5,20H7.5C3.358,20,0,23.358,0,27.5v32C0,63.642,3.358,67,7.5,67H96v25.723c-18.205,3.515-32,19.561-32,38.777
				c0,4.142,3.358,7.5,7.5,7.5H96v0.5c0,4.142,3.358,7.5,7.5,7.5c4.142,0,7.5-3.358,7.5-7.5V139h24.5c4.142,0,7.5-3.358,7.5-7.5
				c0-19.216-13.795-35.262-32-38.777V67h113v25.723c-18.205,3.515-32,19.561-32,38.777c0,4.142,3.358,7.5,7.5,7.5H224v0.5
				c0,4.142,3.358,7.5,7.5,7.5c4.142,0,7.5-3.358,7.5-7.5V139h24.5c4.142,0,7.5-3.358,7.5-7.5c0-19.216-13.795-35.262-32-38.777V67
				h113v25.723c-18.205,3.515-32,19.561-32,38.777c0,4.142,3.358,7.5,7.5,7.5H352v0.5c0,4.142,3.358,7.5,7.5,7.5
				c4.142,0,7.5-3.358,7.5-7.5V139h24.5c4.142,0,7.5-3.358,7.5-7.5c0-19.216-13.795-35.262-32-38.777V67h88.5
				c4.142,0,7.5-3.358,7.5-7.5v-32C463,23.358,459.642,20,455.5,20z M126.826,124H80.174c3.175-9.853,12.432-17,23.326-17
				S123.651,114.147,126.826,124z M254.826,124h-46.652c3.175-9.853,12.432-17,23.326-17C242.394,107,251.651,114.147,254.826,124z
				 M382.826,124h-46.652c3.175-9.853,12.432-17,23.326-17S379.651,114.147,382.826,124z M448,52H15V35h433V52z"/>
		</g>
	</g>
</g>
</svg>